<svg width="42" height="42" viewBox="0 0 42 42" fill="none" xmlns="http://www.w3.org/2000/svg">
<path d="M23.6905 20.6985C23.6905 27.2972 18.3871 32.6466 11.8455 32.6466C5.30378 32.6466 0 27.296 0 20.6985C0 14.1009 5.30337 8.75 11.8455 8.75C18.3876 8.75 23.6905 14.0997 23.6905 20.6985Z" fill="white"/>
<path d="M36.6849 20.6985C36.6849 26.9098 34.0332 31.9471 30.7622 31.9471C27.4911 31.9471 24.8394 26.9098 24.8394 20.6985C24.8394 14.4872 27.4907 9.44992 30.7618 9.44992C34.0328 9.44992 36.6845 14.4856 36.6845 20.6985" fill="white"/>
<path d="M42 20.6985C42 26.2623 41.0675 30.7754 39.9169 30.7754C38.7663 30.7754 37.8343 26.2635 37.8343 20.6985C37.8343 15.1334 38.7667 10.6215 39.9169 10.6215C41.0671 10.6215 42 15.133 42 20.6985Z" fill="white"/>
</svg>
