<svg width="54" height="54" viewBox="0 0 54 54" fill="none" xmlns="http://www.w3.org/2000/svg">
<g clip-path="url(#clip0_803_61531)">
<path d="M16.9879 48.9376C37.3602 48.9376 48.5061 32.0552 48.5061 17.4193C48.5061 16.9447 48.4956 16.4595 48.4745 15.9849C50.6427 14.4169 52.5139 12.4747 54 10.2495C51.9807 11.1479 49.8367 11.7347 47.6413 11.9897C49.9529 10.6041 51.6837 8.4274 52.5129 5.86307C50.3382 7.15185 47.96 8.06097 45.4802 8.55147C43.8094 6.7761 41.6002 5.6006 39.1943 5.20671C36.7884 4.81281 34.3197 5.22245 32.1699 6.37231C30.0202 7.52216 28.309 9.34818 27.3012 11.568C26.2933 13.7879 26.0447 16.278 26.5939 18.6533C22.1906 18.4323 17.8829 17.2884 13.95 15.2958C10.0171 13.3032 6.54681 10.5063 3.76418 7.0865C2.3499 9.52489 1.91713 12.4103 2.55382 15.1563C3.19051 17.9023 4.84889 20.3028 7.19191 21.8701C5.43291 21.8142 3.71245 21.3406 2.17266 20.4884V20.6255C2.17108 23.1844 3.05572 25.6649 4.6762 27.6453C6.29667 29.6257 8.55298 30.9839 11.0616 31.4888C9.43212 31.9346 7.72196 31.9996 6.0634 31.6787C6.77127 33.8793 8.14854 35.8041 10.003 37.1843C11.8574 38.5646 14.0965 39.3314 16.4078 39.3779C12.484 42.4601 7.63689 44.1319 2.64727 44.124C1.7624 44.1226 0.878398 44.0684 0 43.9615C5.06893 47.2135 10.9654 48.9407 16.9879 48.9376Z" fill="white"/>
</g>
<defs>
<clipPath id="clip0_803_61531">
<rect width="54" height="54" fill="white"/>
</clipPath>
</defs>
</svg>
