<svg width="42" height="42" viewBox="0 0 42 42" fill="none" xmlns="http://www.w3.org/2000/svg">
<path fill-rule="evenodd" clip-rule="evenodd" d="M42 21C42 32.598 32.598 42 21 42C9.40202 42 0 32.598 0 21C0 9.40202 9.40202 0 21 0C32.598 0 42 9.40202 42 21ZM31.9298 17.9298C33.6246 17.9298 35 19.3052 35 21C35 22.2526 34.2386 23.3333 33.2316 23.8245C33.2807 24.1193 33.3053 24.414 33.3053 24.7333C33.3053 29.4491 27.8281 33.2561 21.0491 33.2561C14.2702 33.2561 8.79299 29.4491 8.79299 24.7333C8.79299 24.414 8.81755 24.0947 8.86668 23.8C7.78598 23.3087 7.04913 22.2526 7.04913 21C7.04913 19.3052 8.42457 17.9298 10.1193 17.9298C10.9298 17.9298 11.6912 18.2736 12.2316 18.7894C14.3439 17.2421 17.2667 16.2842 20.5333 16.1859L22.0807 8.86662C22.1298 8.71926 22.2035 8.59645 22.3263 8.52277C22.4491 8.44908 22.5965 8.42452 22.7439 8.44908L27.8281 9.52978C28.1719 8.79294 28.9088 8.30171 29.7684 8.30171C30.9719 8.30171 31.9544 9.28417 31.9544 10.4877C31.9544 11.6912 30.9719 12.6736 29.7684 12.6736C28.5895 12.6736 27.6316 11.7403 27.5825 10.5859L23.0386 9.62803L21.6386 16.1859C24.8316 16.3087 27.7298 17.2912 29.8176 18.7894C30.3579 18.2491 31.0947 17.9298 31.9298 17.9298ZM16.186 21C14.9825 21 14 21.9824 14 23.1859C14 24.3894 14.9825 25.3719 16.186 25.3719C17.3895 25.3719 18.3719 24.3894 18.3719 23.1859C18.3719 21.9824 17.3895 21 16.186 21ZM21.0246 30.5543C21.8597 30.5543 24.7088 30.4561 26.207 28.9579C26.4281 28.7368 26.4281 28.3929 26.2562 28.1473C26.0351 27.9263 25.6667 27.9263 25.4456 28.1473C24.4877 29.0807 22.4983 29.4245 21.0491 29.4245C19.6 29.4245 17.586 29.0807 16.6526 28.1473C16.4316 27.9263 16.0632 27.9263 15.8421 28.1473C15.6211 28.3684 15.6211 28.7368 15.8421 28.9579C17.3158 30.4315 20.1895 30.5543 21.0246 30.5543ZM23.6281 23.1859C23.6281 24.3894 24.6105 25.3719 25.814 25.3719C27.0176 25.3719 28 24.3894 28 23.1859C28 21.9824 27.0176 21 25.814 21C24.6105 21 23.6281 21.9824 23.6281 23.1859Z" fill="white"/>
</svg>
