<svg width="42" height="42" viewBox="0 0 42 42" fill="none" xmlns="http://www.w3.org/2000/svg">
<path d="M41.5816 12.6001C41.5816 12.6001 41.1715 9.70438 39.9082 8.4329C38.3086 6.75946 36.5203 6.75126 35.7 6.65282C29.8266 6.22626 21.0082 6.22626 21.0082 6.22626H20.9918C20.9918 6.22626 12.1734 6.22626 6.3 6.65282C5.47969 6.75126 3.69141 6.75946 2.0918 8.4329C0.828516 9.70438 0.426562 12.6001 0.426562 12.6001C0.426562 12.6001 0 16.0044 0 19.4005V22.5833C0 25.9794 0.418359 29.3837 0.418359 29.3837C0.418359 29.3837 0.828516 32.2794 2.08359 33.5509C3.6832 35.2243 5.7832 35.1669 6.71836 35.3474C10.0816 35.6673 21 35.7657 21 35.7657C21 35.7657 29.8266 35.7493 35.7 35.3309C36.5203 35.2325 38.3086 35.2243 39.9082 33.5509C41.1715 32.2794 41.5816 29.3837 41.5816 29.3837C41.5816 29.3837 42 25.9876 42 22.5833V19.4005C42 16.0044 41.5816 12.6001 41.5816 12.6001ZM16.6605 26.447V14.6427L28.0055 20.5653L16.6605 26.447Z" fill="white"/>
</svg>
