<?xml version="1.0" encoding="UTF-8" standalone="no"?>
<!DOCTYPE svg PUBLIC "-//W3C//DTD SVG 1.1//EN" "http://www.w3.org/Graphics/SVG/1.1/DTD/svg11.dtd">
<svg width="100%" height="100%" viewBox="0 0 396 75" version="1.1" xmlns="http://www.w3.org/2000/svg" xmlns:xlink="http://www.w3.org/1999/xlink" xml:space="preserve" xmlns:serif="http://www.serif.com/" style="fill-rule:evenodd;clip-rule:evenodd;stroke-linejoin:round;stroke-miterlimit:2;">
    <g transform="matrix(1,0,0,1,-762,-502.632)">
        <g transform="matrix(1,0,0,1,762,502.632)">
            <path d="M110.769,53.047C103.466,53.047 98.94,46.492 98.94,37.423C98.94,28.445 102.749,21.755 110.724,21.755C115.966,21.755 119.416,25.122 120.044,29.567L132.231,29.567C131.603,24.045 129.139,19.196 124.838,15.964C121.343,13.27 116.504,11.609 110.769,11.609C96.073,11.609 86.529,22.743 86.529,37.423C86.529,52.194 96.387,63.013 110.859,63.013C117.803,63.013 122.866,61.083 126.63,57.401C129.99,54.169 132.231,49.679 132.544,44.786L120.357,44.786C119.82,49.59 116.235,53.047 110.769,53.047Z" style="fill:rgb(38,38,38);fill-rule:nonzero;"/>
        </g>
        <g transform="matrix(1,0,0,1,762,502.632)">
            <path d="M155.037,25.661C143.746,25.661 136.174,33.742 136.174,44.382C136.174,55.022 143.746,63.103 155.037,63.103C166.417,63.103 173.855,55.022 173.855,44.382C173.855,33.742 166.417,25.661 155.037,25.661ZM154.992,55.067C150.108,55.067 147.554,50.802 147.554,44.382C147.554,37.962 150.108,33.607 154.992,33.607C159.876,33.607 162.519,37.962 162.519,44.382C162.475,50.802 159.876,55.067 154.992,55.067Z" style="fill:rgb(38,38,38);fill-rule:nonzero;"/>
        </g>
        <g transform="matrix(1,0,0,1,762,502.632)">
            <path d="M189.797,21.904C192.194,19.502 192.194,15.608 189.797,13.206C187.399,10.804 183.513,10.804 181.116,13.206C178.719,15.608 178.719,19.502 181.116,21.904C183.513,24.306 187.399,24.306 189.797,21.904Z" style="fill:rgb(38,38,38);fill-rule:nonzero;"/>
        </g>
        <g transform="matrix(1,0,0,1,762,502.632)">
            <path d="M175.692,34.55L180.396,34.55L180.396,61.981L191.598,61.981L191.598,26.604L175.692,26.604L175.692,34.55Z" style="fill:rgb(38,38,38);fill-rule:nonzero;"/>
        </g>
        <g transform="matrix(1,0,0,1,762,502.632)">
            <path d="M219.153,25.571C214.27,25.571 210.864,27.636 208.266,31.452L208.042,31.452L208.042,26.604L197.244,26.604L197.244,61.936L208.49,61.936L208.49,42.407C208.49,38.052 210.954,34.954 214.673,34.954C218.347,34.954 220.184,37.513 220.184,41.239L220.184,61.936L231.43,61.936L231.43,38.95C231.43,31.093 226.86,25.571 219.153,25.571Z" style="fill:rgb(38,38,38);fill-rule:nonzero;"/>
        </g>
        <g transform="matrix(1,0,0,1,762,502.632)">
            <path d="M257.775,12.597L236.762,12.597L236.762,61.936L257.014,61.936C263.197,61.936 268.17,60.364 272.024,57.446C277.535,53.226 280.581,46.268 280.581,37.558C280.581,22.474 271.396,12.597 257.775,12.597ZM256.118,51.7L248.949,51.7L248.949,22.833L256.252,22.833C263.914,22.833 268.26,28.624 268.26,37.603C268.215,46.627 264.093,51.7 256.118,51.7Z" style="fill:rgb(38,38,38);fill-rule:nonzero;"/>
        </g>
        <g transform="matrix(1,0,0,1,762,502.632)">
            <path d="M313.871,30.24C310.825,27.502 306.837,25.841 301.819,25.841C291.065,25.841 283.717,33.922 283.717,44.472C283.717,55.157 290.886,63.237 302.536,63.237C307.016,63.237 310.6,62.07 313.558,60.005C316.649,57.85 318.71,54.842 319.472,51.655L308.539,51.655C307.554,53.855 305.627,55.157 302.67,55.157C298.055,55.157 295.456,52.194 294.739,47.435L320.099,47.435C320.144,40.207 318.083,34.101 313.871,30.24ZM294.784,40.701C295.546,36.481 297.741,33.787 301.998,33.787C305.627,33.787 308.271,36.481 308.674,40.701L294.784,40.701Z" style="fill:rgb(38,38,38);fill-rule:nonzero;"/>
        </g>
        <g transform="matrix(1,0,0,1,762,502.632)">
            <path d="M342.233,39.848C337.752,39.04 333.765,38.68 333.765,36.211C333.765,34.011 335.915,32.979 338.648,32.979C341.74,32.979 343.891,33.967 344.294,37.109L354.644,37.109C354.106,30.151 348.73,25.796 338.738,25.796C330.404,25.796 323.504,29.657 323.504,37.109C323.504,45.414 330.046,47.031 336.184,48.063C340.889,48.871 345.145,49.231 345.145,52.418C345.145,54.708 342.995,55.92 339.634,55.92C335.915,55.92 333.585,54.214 333.137,50.667L322.519,50.667C322.877,58.479 329.329,63.237 339.679,63.237C348.909,63.237 355.719,59.242 355.719,51.52C355.764,42.496 348.461,40.88 342.233,39.848Z" style="fill:rgb(38,38,38);fill-rule:nonzero;"/>
        </g>
        <g transform="matrix(1,0,0,1,762,502.632)">
            <path d="M382.155,39.893L394.566,26.604L381.617,26.604L371.133,38.546L371.133,12.597L360.066,12.597L360.066,61.98L371.133,61.98L371.133,51.116L374.538,47.525L383.006,61.98L396,61.98L382.155,39.893Z" style="fill:rgb(38,38,38);fill-rule:nonzero;"/>
        </g>
        <g transform="matrix(1,0,0,1,762,502.632)">
            <path d="M37.154,40.701C39.035,40.701 40.559,39.173 40.559,37.289C40.559,35.405 39.035,33.877 37.154,33.877C35.274,33.877 33.749,35.405 33.749,37.289C33.749,39.173 35.274,40.701 37.154,40.701Z" style="fill:rgb(248,191,30);fill-rule:nonzero;"/>
        </g>
        <g transform="matrix(1,0,0,1,762,502.632)">
            <path d="M64.307,40.701C66.187,40.701 67.712,39.173 67.712,37.289C67.712,35.405 66.187,33.877 64.307,33.877C62.426,33.877 60.901,35.405 60.901,37.289C60.901,39.173 62.426,40.701 64.307,40.701Z" style="fill:rgb(248,191,30);fill-rule:nonzero;"/>
        </g>
        <g transform="matrix(1,0,0,1,762,502.632)">
            <path d="M64.307,67.952C66.187,67.952 67.712,66.424 67.712,64.54C67.712,62.655 66.187,61.128 64.307,61.128C62.426,61.128 60.901,62.655 60.901,64.54C60.901,66.424 62.426,67.952 64.307,67.952Z" style="fill:rgb(248,191,30);fill-rule:nonzero;"/>
        </g>
        <g transform="matrix(1,0,0,1,762,502.632)">
            <path d="M74.298,9.409C73.939,4.426 69.952,0.386 64.978,0.027C61.797,-0.198 58.929,1.014 56.913,3.079C55.39,4.651 53.329,5.593 51.133,5.593L50.327,5.593C48.087,5.593 45.981,4.651 44.413,3.035C42.576,1.149 40.022,0.027 37.199,0.027C34.376,0.027 31.822,1.194 29.985,3.035C28.417,4.651 26.311,5.593 24.071,5.593L23.309,5.593C21.114,5.593 19.008,4.74 17.485,3.169C17.171,2.855 16.857,2.541 16.544,2.271C12.735,-0.826 7.135,-0.737 3.461,2.541C-0.975,6.446 -1.154,13.27 2.968,17.401C3.013,17.446 3.057,17.49 3.102,17.535C4.715,19.062 5.566,21.217 5.566,23.417L5.566,24.18C5.566,26.424 4.626,28.534 3.013,30.106C1.131,31.946 0.011,34.505 0.011,37.334C0.011,40.162 1.175,42.721 3.013,44.562C4.626,46.133 5.566,48.243 5.566,50.488L5.566,51.52C5.566,53.72 4.626,55.785 3.057,57.312C1.086,59.242 -0.124,61.981 0.011,64.989C0.235,70.286 4.536,74.551 9.778,74.731C12.825,74.82 15.558,73.608 17.485,71.588C19.008,70.017 21.069,69.029 23.265,69.029L24.116,69.029C26.311,69.029 28.372,69.972 29.896,71.588C31.912,73.698 34.824,74.91 38.006,74.686C42.979,74.327 47.011,70.286 47.37,65.258C47.773,59.287 43.113,54.349 37.244,54.349C34.466,54.349 31.912,55.471 30.075,57.312C28.507,58.883 26.401,59.826 24.205,59.826L23.265,59.826C21.069,59.826 18.918,58.973 17.35,57.356C17.305,57.312 17.305,57.312 17.261,57.267C15.648,55.695 14.707,53.585 14.707,51.341L14.707,50.443C14.707,48.198 15.648,46.088 17.261,44.517C19.142,42.676 20.263,40.117 20.263,37.289C20.263,34.461 19.098,31.901 17.261,30.061C15.648,28.49 14.707,26.38 14.707,24.135L14.707,23.327C14.707,21.082 15.648,18.972 17.216,17.401C17.261,17.356 17.261,17.356 17.305,17.311C17.35,17.266 17.35,17.266 17.395,17.221C18.963,15.65 21.069,14.707 23.309,14.707L24.116,14.707C26.356,14.707 28.462,15.65 30.03,17.266C31.867,19.152 34.421,20.274 37.244,20.274C40.067,20.274 42.62,19.107 44.457,17.266C46.026,15.65 48.132,14.707 50.372,14.707L51.089,14.707C53.329,14.707 55.435,15.65 57.003,17.266C58.84,19.152 61.394,20.274 64.217,20.274C70.041,20.319 74.701,15.38 74.298,9.409Z" style="fill:rgb(248,191,30);fill-rule:nonzero;"/>
        </g>
    </g>
</svg>
