<svg width="114" height="36" viewBox="0 0 114 36" fill="none" xmlns="http://www.w3.org/2000/svg">
<g clip-path="url(#clip0_3616_273)">
<path d="M112.198 32.6888C111.171 33.2152 109.913 32.8097 109.386 31.7829C108.86 30.7562 109.265 29.4972 110.292 28.9708C111.319 28.4444 112.578 28.8499 113.104 29.8767C113.631 30.9034 113.225 32.1625 112.198 32.6888Z" fill="#05AC3F"/>
<path d="M112.198 27.0775C111.171 27.6039 109.913 27.1983 109.386 26.1717C108.86 25.1449 109.265 23.8858 110.292 23.3594C111.319 22.8331 112.578 23.2386 113.104 24.2653C113.631 25.292 113.225 26.5511 112.198 27.0775Z" fill="#069DE0"/>
<path d="M112.198 21.3901C111.171 21.9165 109.913 21.5109 109.386 20.4841C108.86 19.4574 109.265 18.1984 110.292 17.672C111.319 17.1455 112.578 17.5511 113.104 18.5778C113.631 19.6046 113.225 20.8637 112.198 21.3901Z" fill="#6E55DC"/>
<path d="M112.198 15.5446C111.171 16.071 109.913 15.6654 109.386 14.6386C108.86 13.6119 109.265 12.3529 110.292 11.8265C111.319 11.3001 112.578 11.7057 113.104 12.7324C113.631 13.7591 113.225 15.0182 112.198 15.5446Z" fill="#EF1541"/>
<path d="M112.198 9.88656C111.171 10.413 109.913 10.0073 109.386 8.98069C108.86 7.95394 109.265 6.69484 110.292 6.16855C111.319 5.64213 112.578 6.04767 113.104 7.07429C113.631 8.10104 113.225 9.36027 112.198 9.88656Z" fill="#FF7112"/>
<path d="M112.198 4.19113C111.171 4.71742 109.913 4.31189 109.386 3.28513C108.86 2.25838 109.265 0.999413 110.292 0.472993C111.319 -0.0534281 112.578 0.352107 113.104 1.37886C113.631 2.40561 113.225 3.66471 112.198 4.19113Z" fill="#FCCC12"/>
<path d="M7.39632 11.0335C3.38656 11.0335 0.124329 14.2959 0.124329 18.3057V35.127H3.57267V25.7818L4.83151 27.1205L9.89579 25.1366C12.7921 24.0073 14.6683 21.4161 14.6683 18.3055C14.6683 14.2958 11.4061 11.0334 7.39632 11.0334V11.0335ZM8.69042 22.0771L3.57267 24.083V18.3055C3.57267 15.9926 5.30911 14.3122 7.39632 14.3122C9.48341 14.3122 11.2201 15.9926 11.2201 18.3055C11.2201 19.7674 10.5065 21.3654 8.69042 22.077V22.0771ZM23.0725 11.0334C19.0628 11.0334 15.8005 14.2957 15.8005 18.3054C15.8005 22.3152 19.0628 25.5774 23.0726 25.5774C25.458 25.5774 27.717 24.4228 29.0037 22.6431L26.2373 20.7279C25.9042 21.2743 24.8449 22.2989 23.0726 22.2989C21.4213 22.2989 20.0999 21.313 19.5396 19.8805H30.0311C30.1408 19.3627 30.1959 18.8348 30.1955 18.3054C30.1955 14.2957 27.0822 11.0334 23.0726 11.0334H23.0725ZM19.5453 16.7303C20.1149 15.2979 21.451 14.3118 23.0725 14.3118C24.7239 14.3118 25.9616 15.2979 26.4799 16.7302H19.5453V16.7303ZM42.5274 12.77C41.358 11.5547 39.8124 11.0334 38.1812 11.0334C34.8074 11.0334 31.3721 14.0969 31.3721 18.3054C31.3721 22.5139 34.8075 25.5774 38.1812 25.5774C39.8124 25.5774 41.358 25.0562 42.5274 23.8408V25.1529H45.9758V11.4581H42.5274V12.7702V12.77ZM38.7036 22.2989C36.4973 22.2989 34.8204 20.5387 34.8204 18.3054C34.8204 16.0721 36.5371 14.3119 38.7036 14.3119C40.9101 14.3119 42.5274 16.0721 42.5274 18.3053C42.5274 20.5387 40.9101 22.2989 38.7036 22.2989ZM54.5634 14.3148C56.0602 14.3148 57.2853 15.1254 57.918 16.3442L60.6103 14.2792C59.3061 12.3269 57.0824 11.0385 54.5634 11.0385C50.5564 11.0385 47.2961 14.2986 47.2961 18.3058C47.2961 22.3128 50.5564 25.573 54.5634 25.573C57.0824 25.573 59.3061 24.2846 60.6103 22.3322L57.918 20.2672C57.2853 21.486 56.0602 22.2967 54.5634 22.2967C52.3586 22.2967 50.7422 20.5377 50.7422 18.3058C50.7422 16.0738 52.3982 14.3148 54.5634 14.3148ZM68.2639 11.0294C64.2542 11.0294 60.9922 14.2915 60.9922 18.3012C60.9922 22.3109 64.2542 25.5731 68.2639 25.5731C72.2737 25.5731 75.5359 22.3108 75.5359 18.3012C75.5359 14.2915 72.2736 11.0294 68.2639 11.0294ZM68.2662 22.2901C66.0596 22.2901 64.4421 20.5298 64.4421 18.2962C64.4421 16.0627 66.0993 14.3022 68.2662 14.3022C70.4729 14.3022 72.0904 16.0627 72.0904 18.2962C72.0904 20.5299 70.4729 22.2902 68.2662 22.2902V22.2901ZM83.9902 14.3148C85.4868 14.3148 86.712 15.1254 87.3447 16.3442L90.037 14.2792C88.7327 12.3269 86.5091 11.0385 83.9902 11.0385C79.983 11.0385 76.7228 14.2986 76.7228 18.3058C76.7228 22.3128 79.983 25.573 83.9902 25.573C86.5091 25.573 88.7327 24.2846 90.037 22.3322L87.3447 20.2672C86.7119 21.486 85.4868 22.2967 83.9902 22.2967C81.7852 22.2967 80.169 20.5377 80.169 18.3058C80.169 16.0738 81.8249 14.3148 83.9902 14.3148ZM99.6746 17.8064H98.1233L104.122 11.4578H99.6658L94.8311 16.6573V3.99829H91.3828V25.1529H94.8311V21.2626L96.7431 19.2557L100.81 25.153H104.985L99.6746 17.8065V17.8064Z" fill="black"/>
</g>
<defs>
<clipPath id="clip0_3616_273">
<rect width="113.395" height="35" fill="white" transform="translate(0.0408936 0.148926)"/>
</clipPath>
</defs>
</svg>
