<svg width="102" height="23" viewBox="0 0 102 23" fill="none" xmlns="http://www.w3.org/2000/svg">
<g clip-path="url(#clip0_3616_261)">
<path d="M18.4979 3.08896C19.0089 2.21894 19.7699 1.52335 20.6824 1.09236C22.2769 0.414489 24.1227 0.682312 25.4591 1.78473C26.6748 2.8265 27.2534 4.43666 26.9781 6.01407C27.2856 5.91639 27.5867 5.79992 27.8797 5.66521C29.7234 5.10595 31.7318 5.76718 32.882 7.31293C33.7847 8.54148 34.0069 10.1468 33.4724 11.5745C33.1884 12.2851 32.7392 12.9179 32.1628 13.4208L32.2272 13.4745C34.0284 13.6328 35.5763 14.8377 36.172 16.5445C36.7072 18.1756 36.2617 19.9768 35.0288 21.171C34.0391 22.0968 32.7038 22.5649 31.3523 22.4591H5.64886C3.68286 22.611 1.82367 21.4989 1.02772 19.695C0.325153 18.0269 0.697099 16.0899 1.96697 14.8002C2.75434 14.023 3.78591 13.5399 4.88672 13.4315C3.63134 12.3372 3.05973 10.646 3.39465 9.01433C3.72526 7.55392 4.75684 6.34738 6.14801 5.79402C7.4093 5.31849 8.81658 5.40866 10.007 6.04091L10.05 5.99797C9.72578 4.19728 10.5389 2.3719 12.0949 1.40903C13.6122 0.476212 15.5411 0.507879 17.0273 1.48954C17.6316 1.90925 18.1345 2.45992 18.4979 3.09969" fill="white"/>
<path d="M25.7704 3.78671C26.3071 4.89772 26.0012 6.3576 25.4216 7.35589L20.9614 17.3925L20.9239 17.4355L19.3137 7.23782C19.1849 6.26099 20.2369 5.84771 20.8487 5.3754C20.7784 5.2702 20.6636 5.20258 20.5374 5.19292L19.0453 5.16608L19.0024 5.11778C19.0072 3.84307 19.7162 2.67034 20.8434 2.07458C22.117 1.40851 23.6729 1.56953 24.7829 2.48249C25.2042 2.84316 25.5413 3.2924 25.7704 3.79745" fill="#625EA7"/>
<path d="M17.5587 3.43237C17.9499 4.12044 18.1066 4.918 18.0041 5.70269L16.1847 17.3763L15.707 16.4746L11.1449 6.27698C11.0359 5.9324 10.9801 5.5728 10.9801 5.21105C10.9801 3.2735 12.5742 1.67944 14.5117 1.67944C14.9733 1.67944 15.4306 1.76961 15.8573 1.94566C16.5598 2.24783 17.1534 2.75717 17.5587 3.40553" fill="#C52248"/>
<path d="M32.3453 8.33796C32.9233 9.486 32.8433 10.8605 32.1359 11.934C31.7119 12.621 31.0142 12.9591 30.4292 13.4046L21.0098 19.8828L21.0742 19.5768L26.0818 8.30575C26.8144 6.99562 28.2904 6.27266 29.7744 6.49701C30.8645 6.69184 31.8096 7.36918 32.3453 8.33796Z" fill="#0080BF"/>
<path d="M10.9195 8.28428L16.1256 19.8881H16.0398L5.53617 12.6532C4.47669 11.7826 4.02906 10.3619 4.39832 9.04105C4.70962 7.966 5.50397 7.09491 6.5452 6.68485C8.19991 6.07139 10.0741 6.75785 10.9409 8.29501" fill="#ED6E21"/>
<path d="M35.104 16.5337C35.6031 17.7112 35.4373 19.0697 34.6693 20.0921C33.978 20.9831 32.8981 21.4887 31.771 21.45H20.575L29.9515 14.9342C30.5134 14.595 31.1575 14.4158 31.8139 14.4158C33.2314 14.4158 34.5233 15.2514 35.104 16.5444" fill="#11B14B"/>
<path d="M1.95623 16.5336C1.45225 17.7096 1.61595 19.0696 2.3856 20.0921C3.07958 20.983 4.16053 21.4886 5.28925 21.45H16.4906L7.11946 14.9342C6.55859 14.5955 5.9156 14.4163 5.26027 14.4163C3.84494 14.4163 2.55574 15.2519 1.9777 16.5444" fill="#FCB90F"/>
<path fill-rule="evenodd" clip-rule="evenodd" d="M91.6151 21.7613C84.9329 21.7613 79.9629 17.226 79.9629 11.4778V11.4241C79.9629 5.73489 84.8363 1.0708 91.8029 1.0708C96.0967 1.0708 98.6515 2.33209 100.771 4.1623L97.5834 7.38261C95.8337 5.98178 94.0518 5.11766 91.7815 5.11766C87.9493 5.11766 85.1905 7.91933 85.1905 11.3543V11.408C85.1905 14.8323 87.8741 17.6983 91.7815 17.6983C94.3738 17.6983 95.9679 16.7806 97.7444 15.3422L100.922 18.176C98.5924 20.3819 95.9893 21.7506 91.6151 21.7506V21.7613ZM71.3432 21.4178H60.5444V1.40896H71.0856C75.7228 1.40896 78.5996 3.44312 78.5996 6.58293V6.64196C78.5996 8.89618 77.2417 10.1575 75.6209 10.9357C78.2454 11.8213 79.8609 13.1685 79.8609 15.8521V15.9111C79.8609 19.5662 76.4903 21.391 71.3647 21.391L71.3432 21.4178ZM73.6189 7.31286C73.6189 6.00327 72.4488 5.25723 70.3395 5.25723H65.4071V9.48657H70.0121C72.2181 9.48657 73.6135 8.85861 73.6135 7.37727V7.31286H73.6189ZM74.8802 15.3153C74.8802 13.9735 73.7477 13.1685 71.1876 13.1685H65.4071V17.5696H71.3432C73.5545 17.5696 74.8802 16.8879 74.8802 15.4227V15.3153ZM43.8794 8.70297V21.4178H38.9469V1.41433H43.552L54.1951 13.7374V1.41433H59.1222V21.4178H54.8767L43.8794 8.70297Z" fill="black"/>
</g>
<defs>
<clipPath id="clip0_3616_261">
<rect width="100.545" height="22" fill="white" transform="translate(0.495422 0.648926)"/>
</clipPath>
</defs>
</svg>
