<svg width="143" height="23" viewBox="0 0 143 23" fill="none" xmlns="http://www.w3.org/2000/svg">
<g clip-path="url(#clip0_3849_248)">
<path d="M15.0398 16.7759L10.9661 18.4914V18.3198C10.1806 18.5146 9.31047 18.6268 8.48631 18.6629C4.6552 18.6268 1.61432 16.6847 1.57893 14.3737V13.5157C2.83724 15.2881 5.39873 16.4756 8.48631 16.4327C9.53083 16.4756 10.5994 16.3154 11.4973 16.0895L11.8515 15.2316C10.7866 15.5394 9.62423 15.7535 8.48631 15.7463C4.6552 15.7535 1.61432 13.8113 1.57893 11.4574V10.7711C2.83724 12.4094 5.39326 13.5972 8.48631 13.5161C9.87779 13.5972 11.2386 13.3138 12.3827 12.8297L12.56 11.9718C11.4422 12.543 9.99344 12.8748 8.48631 12.8297C4.6552 12.8748 1.61432 10.9326 1.57893 8.5408V7.85446C2.83724 9.531 5.39873 10.7185 8.48631 10.7711C10.2412 10.7185 11.9048 10.2692 13.2685 9.56996L13.4459 8.54045C12.208 9.42912 10.401 10.0018 8.48631 10.0847C4.6552 10.0018 1.61468 8.05929 1.57893 5.6242C1.61432 3.30815 4.6552 1.36601 8.48631 1.33527C10.7702 1.36601 12.8913 2.14172 14.1544 3.39394L14.2773 3.59234L15.1704 3.59591L15.0398 3.39394C13.7837 1.74028 11.2715 0.648926 8.48631 0.648926C4.24732 0.648926 0.870422 2.91207 0.870422 5.6242V14.5452C1.01927 17.1927 4.31919 19.3489 8.48631 19.3489C11.2386 19.3489 13.7122 18.3005 15.0398 16.7759Z" fill="black"/>
<path d="M13.5382 22.649L14.9577 16.9721L10.8771 18.6418L13.3612 8.79098H8.57042L9.81246 3.94897H25.0704L23.8284 8.79098H18.8609L17.7963 11.4624L23.2961 9.29183L13.5382 22.649ZM16.0223 15.8032L15.3126 19.1427L21.1672 10.7947L16.3768 12.7985L18.5061 8.1233H23.2961L24.1832 4.617H10.3448L9.45759 8.1233H14.248L11.9413 17.4733L16.0223 15.8039V15.8032Z" fill="black"/>
<path d="M36.4086 13.273C36.3368 14.3199 35.9695 15.1438 35.3068 15.7461C34.6441 16.3478 33.7708 16.6483 32.6869 16.6483C31.5021 16.6483 30.5687 16.2285 29.8899 15.3883C29.2104 14.5487 28.8704 13.3956 28.8704 11.9295V11.3344C28.8704 10.399 29.0271 9.57442 29.3405 8.8613C29.6539 8.14883 30.1017 7.60128 30.6833 7.2206C31.2655 6.83927 31.9418 6.64893 32.7129 6.64893C33.7794 6.64893 34.6391 6.95008 35.2913 7.55174C35.9428 8.15274 36.3194 8.99753 36.4216 10.0848H34.5165C34.47 9.45643 34.3034 9.00079 34.0179 8.71789C33.7317 8.43499 33.297 8.29354 32.7129 8.29354C32.0774 8.29354 31.6024 8.53277 31.2871 9.01187C30.9713 9.49098 30.8096 10.2341 30.801 11.2412V11.9765C30.801 13.0279 30.9527 13.7964 31.2549 14.2821C31.5584 14.7677 32.0353 15.0108 32.6875 15.0108C33.2759 15.0108 33.715 14.8694 34.0049 14.5865C34.2954 14.3036 34.4614 13.8655 34.5035 13.273H36.4086ZM46.2465 11.8696C46.2465 12.8278 46.0854 13.6674 45.7634 14.389C45.4419 15.1112 44.9817 15.6679 44.3822 16.0603C43.7833 16.4521 43.0964 16.6483 42.3216 16.6483C41.5555 16.6483 40.8717 16.4547 40.2703 16.0668C39.6695 15.679 39.2031 15.1256 38.873 14.4059C38.5429 13.6863 38.3757 12.8584 38.3713 11.9224V11.4413C38.3713 10.4831 38.5355 9.64026 38.8637 8.91214C39.192 8.18338 39.6553 7.62409 40.2548 7.23363C40.8537 6.84383 41.5387 6.64893 42.3092 6.64893C43.0797 6.64893 43.7647 6.84448 44.3636 7.23363C44.9625 7.62409 45.4264 8.18338 45.7541 8.91149C46.0823 9.64026 46.2465 10.4811 46.2465 11.4348V11.8696ZM44.3159 11.4283C44.3159 10.4075 44.1425 9.63243 43.7957 9.10183C43.4482 8.57188 42.9527 8.30658 42.3092 8.30658C41.6694 8.30658 41.1764 8.56862 40.829 9.09205C40.4821 9.61549 40.3062 10.3827 40.3025 11.395V11.8696C40.3025 12.863 40.4759 13.6341 40.8228 14.1817C41.1696 14.7299 41.6694 15.0043 42.3216 15.0043C42.9608 15.0043 43.4519 14.7403 43.7957 14.2123C44.1382 13.6843 44.3116 12.9145 44.3159 11.9028V11.4283ZM50.647 16.5146H48.7419V6.78255H50.647V16.5146ZM60.9234 16.5146H59.0176L55.3089 10.1115V16.5146H53.4037V6.78255H55.3089L59.0244 13.1993V6.78255H60.9234V16.5146ZM70.3549 8.40696H67.5226V16.5146H65.6175V8.40696H62.8229V6.78255H70.3549V8.40696ZM77.9953 12.2972H74.3374V14.9039H78.6301V16.5146H72.4316V6.78255H78.6178V8.40696H74.3374V10.7262H77.9953V12.2972ZM82.6442 14.9039H86.6898V16.5146H80.7391V6.78255H82.6442V14.9039ZM94.3364 12.2965H90.6785V14.9039H94.9713V16.5146H88.7733V6.78255H94.9589V8.40696H90.6785V10.7262H94.3364V12.2965ZM104.397 15.2846C104.053 15.7168 103.569 16.0525 102.942 16.2904C102.316 16.529 101.621 16.6489 100.859 16.6489C100.059 16.6489 99.3569 16.4645 98.7537 16.0968C98.1504 15.7292 97.6846 15.196 97.3564 14.4959C97.0281 13.7964 96.8603 12.9745 96.8516 12.0299V11.3677C96.8516 10.3964 97.0071 9.55552 97.3186 8.845C97.6295 8.13449 98.0786 7.59019 98.6645 7.21408C99.251 6.83731 99.9379 6.64893 100.726 6.64893C101.822 6.64893 102.68 6.92401 103.298 7.47482C103.916 8.02498 104.282 8.8261 104.397 9.87753H102.542C102.457 9.3202 102.27 8.91279 101.98 8.65401C101.69 8.39588 101.291 8.26681 100.783 8.26681C100.135 8.26681 99.6418 8.52299 99.3024 9.03534C98.9642 9.54769 98.7927 10.3097 98.7883 11.3214V11.9426C98.7883 12.9634 98.9729 13.7339 99.3408 14.2553C99.7093 14.7768 100.249 15.0376 100.96 15.0376C101.676 15.0376 102.187 14.8772 102.491 14.5565V12.8786H100.757V11.4015H104.397V15.2846ZM110.354 12.9523H108.836V16.5146H106.93V6.78255H110.367C111.459 6.78255 112.301 7.03873 112.894 7.55174C113.487 8.06409 113.783 8.78764 113.783 9.72369C113.783 10.3879 113.647 10.9413 113.374 11.3846C113.1 11.8279 112.686 12.1812 112.132 12.4439L114.132 16.4208V16.5146H112.087L110.354 12.9523ZM108.836 11.3279H110.372C110.851 11.3279 111.221 11.1995 111.484 10.9433C111.747 10.6871 111.878 10.3345 111.878 9.88405C111.878 9.42515 111.754 9.06402 111.506 8.80133C111.258 8.53863 110.879 8.40696 110.367 8.40696H108.836L108.836 11.3279ZM121.443 14.5089H118.102L117.467 16.5146H115.441L118.883 6.78255H120.649L124.109 16.5146H122.084L121.443 14.5089ZM118.616 12.8858H120.928L119.766 9.24198L118.616 12.8858ZM127.87 13.0859V16.5146H125.964V6.78255H129.572C130.266 6.78255 130.877 6.91618 131.404 7.18409C131.931 7.45135 132.336 7.83073 132.62 8.32352C132.904 8.81567 133.046 9.37626 133.046 10.0046C133.046 10.9583 132.736 11.7099 132.115 12.26C131.495 12.8108 130.636 13.0859 129.54 13.0859H127.87ZM127.87 11.4615H129.572C130.076 11.4615 130.46 11.337 130.724 11.0874C130.989 10.8377 131.121 10.4811 131.121 10.0183C131.121 9.54118 130.988 9.15528 130.721 8.8613C130.455 8.56797 130.086 8.41609 129.616 8.40696H127.87V11.4615ZM142.87 16.5146H140.965V12.3441H137.25V16.5146H135.345V6.78255H137.25V10.7262H140.965V6.78255H142.87V16.5146Z" fill="black"/>
</g>
<defs>
<clipPath id="clip0_3849_248">
<rect width="142" height="22" fill="white" transform="translate(0.870422 0.648926)"/>
</clipPath>
</defs>
</svg>
