<svg width="43" height="43" viewBox="0 0 43 43" fill="none" xmlns="http://www.w3.org/2000/svg">
<g clip-path="url(#clip0_4998_260006)">
<path d="M29.9679 0.5625H22.8896V29.1711C22.8896 32.5799 20.1673 35.3799 16.7794 35.3799C13.3915 35.3799 10.6691 32.5799 10.6691 29.1711C10.6691 25.8234 13.331 23.0842 16.5979 22.9625V15.7799C9.3987 15.9016 3.59094 21.806 3.59094 29.1711C3.59094 36.5973 9.51969 42.5625 16.8399 42.5625C24.16 42.5625 30.0888 36.5364 30.0888 29.1711V14.5016C32.7507 16.4495 36.0175 17.606 39.4659 17.6669V10.4842C34.1422 10.3016 29.9679 5.91902 29.9679 0.5625Z" fill="white"/>
</g>
<defs>
<clipPath id="clip0_4998_260006">
<rect width="42" height="42" fill="white" transform="translate(0.0909424 0.5625)"/>
</clipPath>
</defs>
</svg>
