<svg width="42" height="33" viewBox="0 0 42 33" fill="none" xmlns="http://www.w3.org/2000/svg">
<path d="M35.5779 2.78141C32.8185 1.5052 29.9054 0.599814 26.913 0.0883789C26.5035 0.827838 26.133 1.58864 25.8031 2.36761C22.6156 1.8824 19.3742 1.8824 16.1868 2.36761C15.8566 1.58872 15.4861 0.827928 15.0768 0.0883789C12.0825 0.604133 9.16749 1.51167 6.40527 2.78808C0.921566 10.984 -0.564981 18.9763 0.178293 26.8552C3.38969 29.252 6.98416 31.0749 10.8055 32.2446C11.6659 31.0755 12.4273 29.8353 13.0815 28.5371C11.8389 28.0682 10.6395 27.4898 9.49729 26.8084C9.79791 26.5882 10.0919 26.3613 10.376 26.141C13.6996 27.7199 17.3271 28.5386 20.9999 28.5386C24.6726 28.5386 28.3001 27.7199 31.6237 26.141C31.9111 26.378 32.2051 26.6049 32.5024 26.8084C31.358 27.4909 30.1564 28.0704 28.9116 28.5404C29.565 29.838 30.3265 31.0772 31.1877 32.2446C35.0122 31.0796 38.6095 29.2576 41.8214 26.8585C42.6935 17.7215 40.3316 9.80264 35.5779 2.78141ZM14.023 22.0097C11.9517 22.0097 10.2406 20.1109 10.2406 17.7749C10.2406 15.439 11.8923 13.5235 14.0164 13.5235C16.1405 13.5235 17.8385 15.439 17.8021 17.7749C17.7658 20.1109 16.1339 22.0097 14.023 22.0097ZM27.9767 22.0097C25.9022 22.0097 24.1976 20.1109 24.1976 17.7749C24.1976 15.439 25.8493 13.5235 27.9767 13.5235C30.1041 13.5235 31.7889 15.439 31.7526 17.7749C31.7162 20.1109 30.0876 22.0097 27.9767 22.0097Z" fill="white"/>
</svg>
