<svg width="43" height="36" viewBox="0 0 43 36" fill="none" xmlns="http://www.w3.org/2000/svg">
<path fill-rule="evenodd" clip-rule="evenodd" d="M3.25093 15.5465C14.5252 10.6345 22.0431 7.3962 25.8048 5.83161C36.545 1.3644 38.7767 0.588397 40.2313 0.562773C40.5512 0.557137 41.2665 0.636425 41.7299 1.01241C42.1211 1.32989 42.2288 1.75875 42.2803 2.05975C42.3318 2.36075 42.396 3.04644 42.345 3.58222C41.763 9.69749 39.2446 24.5376 37.9634 31.3869C37.4213 34.285 36.3538 35.2567 35.3204 35.3518C33.0745 35.5585 31.3691 33.8676 29.1939 32.4417C25.79 30.2105 23.8671 28.8215 20.5631 26.6442C16.7448 24.128 19.22 22.7451 21.3961 20.4849C21.9656 19.8934 31.8609 10.8928 32.0525 10.0763C32.0764 9.97421 32.0987 9.59357 31.8725 9.39258C31.6464 9.19159 31.3126 9.26032 31.0718 9.31498C30.7304 9.39246 25.2928 12.9865 14.7589 20.0972C13.2154 21.1571 11.8174 21.6735 10.5648 21.6464C9.18395 21.6166 6.52773 20.8656 4.5531 20.2238C2.13113 19.4365 0.206204 19.0202 0.373822 17.6832C0.461128 16.9868 1.42016 16.2745 3.25093 15.5465Z" fill="white"/>
</svg>
